<svg width="19" height="19" viewBox="0 0 19 19" fill="none" xmlns="http://www.w3.org/2000/svg">
<path d="M9.5 7.42187C9.08898 7.42187 8.6872 7.54375 8.34545 7.7721C8.00371 8.00045 7.73735 8.32501 7.58006 8.70473C7.42277 9.08446 7.38162 9.5023 7.4618 9.90542C7.54199 10.3085 7.73991 10.6788 8.03054 10.9695C8.32117 11.2601 8.69146 11.458 9.09458 11.5382C9.49769 11.6184 9.91553 11.5772 10.2953 11.4199C10.675 11.2626 10.9995 10.9963 11.2279 10.6545C11.4562 10.3128 11.5781 9.91101 11.5781 9.5C11.5762 8.94945 11.3566 8.422 10.9673 8.0327C10.578 7.6434 10.0505 7.42383 9.5 7.42187ZM13.3594 9.5C13.3594 9.08898 13.4813 8.6872 13.7096 8.34545C13.9379 8.00371 14.2625 7.73735 14.6422 7.58006C15.022 7.42277 15.4398 7.38162 15.8429 7.4618C16.246 7.54199 16.6163 7.73991 16.907 8.03054C17.1976 8.32117 17.3955 8.69146 17.4757 9.09458C17.5559 9.49769 17.5147 9.91553 17.3574 10.2953C17.2001 10.675 16.9338 10.9995 16.592 11.2279C16.2503 11.4562 15.8485 11.5781 15.4375 11.5781C14.8869 11.5762 14.3595 11.3566 13.9702 10.9673C13.5809 10.578 13.3613 10.0505 13.3594 9.5ZM5.64062 9.5C5.64062 9.91101 5.51874 10.3128 5.29039 10.6545C5.06205 10.9963 4.73749 11.2626 4.35776 11.4199C3.97803 11.5772 3.56019 11.6184 3.15707 11.5382C2.75396 11.458 2.38367 11.2601 2.09304 10.9695C1.80241 10.6788 1.60449 10.3085 1.5243 9.90542C1.44412 9.5023 1.48527 9.08446 1.64256 8.70473C1.79985 8.32501 2.06621 8.00045 2.40795 7.7721C2.7497 7.54375 3.15148 7.42187 3.5625 7.42187C4.11305 7.42383 4.64049 7.6434 5.02979 8.0327C5.41909 8.422 5.63867 8.94945 5.64062 9.5Z" fill="white"/>
</svg>
