<svg width="43" height="44" viewBox="0 0 43 44" fill="none" xmlns="http://www.w3.org/2000/svg">
<path d="M11.9411 37.2056V24.8381C11.9411 23.8959 12.7048 23.1322 13.647 23.1322C14.5891 23.1322 15.3528 23.8959 15.3528 24.8381V29.5292C15.3528 32.8267 18.0259 35.4998 21.3234 35.4998C24.6208 35.4998 27.2939 32.8267 27.2939 29.5292V24.8381C27.2939 23.8959 28.0577 23.1322 28.9998 23.1322H29.4694C30.2714 23.1322 30.9419 23.7054 31.2883 24.4286C32.25 26.4366 34.3012 27.8233 36.6762 27.8233C39.9736 27.8233 42.6468 25.1502 42.6468 21.8528C42.6468 18.5554 39.9736 15.8822 36.6762 15.8822C34.3012 15.8822 32.25 17.269 31.2883 19.277C30.9419 20.0002 30.2714 20.5734 29.4694 20.5734H28.9998C28.0577 20.5734 27.2939 19.8096 27.2939 18.8675V14.1764C27.2939 10.8789 24.6208 8.20583 21.3234 8.20583C18.0259 8.20583 15.3528 10.8789 15.3528 14.1764V18.8675C15.3528 19.8096 14.5891 20.5734 13.647 20.5734C12.7048 20.5734 11.9411 19.8096 11.9411 18.8675V6.49996C11.9411 3.20252 9.26799 0.529419 5.97055 0.529419C2.6731 0.529419 0 3.20252 0 6.49996V37.2056C0 40.5031 2.6731 43.1762 5.97055 43.1762C9.26799 43.1762 11.9411 40.5031 11.9411 37.2056Z" fill="white"/>
</svg>
