<svg width="618" height="603" viewBox="0 0 618 603" fill="none" xmlns="http://www.w3.org/2000/svg">
<path opacity="0.0526316" d="M83.1278 491.703C96.5453 506.652 137.307 530.072 193.012 504.16C262.643 471.77 284.42 400.1 345.47 358.602C390.53 327.973 514.346 277.103 591.365 314.682" stroke="#B093FA"/>
<path opacity="0.105263" d="M68.3468 459.202C80.1282 475.471 118.218 503.023 176.327 483.076C248.962 458.142 278.112 389.14 343.165 354.251C391.179 328.5 519.634 290.851 592.303 336.276" stroke="#B093FA"/>
<path opacity="0.157895" d="M56.4255 425.995C66.4418 443.407 101.443 474.789 161.318 461.026C236.162 443.821 272.365 378.244 340.709 350.346C391.152 329.755 522.838 305.739 590.361 358.511" stroke="#B093FA"/>
<path opacity="0.210526" d="M47.4226 392.386C55.5639 410.749 87.0931 445.618 148.079 438.189C224.312 428.902 267.17 367.468 338.056 346.867C390.375 331.662 523.85 321.542 585.487 381.083" stroke="#B093FA"/>
<path opacity="0.263158" d="M41.365 358.682C47.5422 377.796 75.2539 415.77 136.682 414.756C213.468 413.488 262.513 356.871 335.164 343.792C388.786 334.139 522.588 338.027 577.663 403.684" stroke="#B093FA"/>
<path opacity="0.315789" d="M38.246 325.192C42.3914 344.847 65.9819 385.509 127.18 390.922C203.677 397.687 258.372 346.507 331.992 341.094C386.329 337.099 518.992 354.951 566.902 426.006" stroke="#B093FA"/>
<path opacity="0.368421" d="M38.0267 292.22C40.095 312.201 59.3058 355.107 119.603 366.886C194.974 381.611 254.719 336.428 328.501 338.74C382.958 340.446 513.028 372.068 553.249 447.742" stroke="#B093FA"/>
<path opacity="0.421053" d="M40.6378 260.069C40.6063 280.156 55.227 324.835 113.962 342.853C187.382 365.375 251.522 326.685 324.659 336.697C378.639 344.086 504.691 389.131 536.782 468.594" stroke="#B093FA"/>
<path opacity="0.473684" d="M45.9774 229.029C43.8464 249.003 53.7168 294.965 110.247 319.024C180.91 349.097 248.743 317.324 320.433 334.925C373.345 347.916 493.998 405.89 517.606 488.273" stroke="#B093FA"/>
<path opacity="0.526316" d="M53.9143 199.378C49.7071 219.02 54.7191 265.762 108.425 295.598C175.557 332.893 246.34 308.384 315.797 333.383C367.061 351.834 480.993 422.102 495.861 506.5" stroke="#B093FA"/>
<path opacity="0.578947" d="M64.2898 171.382C58.0525 190.476 58.1512 237.486 108.444 272.772C171.31 316.88 244.267 299.904 310.731 332.026C359.785 355.735 465.748 437.527 471.713 523.017" stroke="#B093FA"/>
<path opacity="0.631579" d="M76.9165 145.285C68.7175 163.623 63.9017 210.386 110.231 250.736C168.142 301.173 242.474 291.916 305.215 330.81C351.523 359.516 448.356 451.936 445.352 537.582" stroke="#B093FA"/>
<path opacity="0.684211" d="M91.5843 121.314C81.5134 138.694 71.836 184.697 113.693 229.669C166.015 285.883 240.907 284.447 299.24 329.685C342.294 363.075 428.935 465.111 416.995 549.973" stroke="#B093FA"/>
<path opacity="0.736842" d="M108.061 99.668C96.2281 115.9 81.795 160.64 118.722 209.741C164.881 271.116 239.514 277.516 292.798 328.604C332.125 366.311 407.627 476.845 386.882 559.994" stroke="#B093FA"/>
<path opacity="0.789474" d="M126.091 80.5261C112.627 95.4326 93.596 138.419 125.189 191.11C164.679 256.975 238.234 271.141 285.886 327.519C321.057 369.13 384.591 486.95 355.267 567.475" stroke="#B093FA"/>
<path opacity="0.842105" d="M145.405 64.0346C130.456 77.4521 107.037 118.213 132.948 173.919C165.338 243.55 237.009 265.327 278.507 326.377C309.135 371.437 360.006 495.252 322.426 572.271" stroke="#B093FA"/>
<path opacity="0.894737" d="M165.721 50.3151C149.451 62.0965 121.899 100.186 141.846 158.295C166.78 230.931 235.782 260.08 270.671 325.133C296.422 373.148 334.071 501.602 288.647 574.272" stroke="#B093FA"/>
<path opacity="0.947368" d="M186.74 39.4558C169.329 49.4721 137.946 84.4734 151.71 144.349C168.914 219.193 234.491 255.395 262.389 323.739C282.98 374.182 306.996 505.868 254.225 573.391" stroke="#B093FA"/>
<path d="M208.162 31.5149C189.799 39.6562 154.93 71.1854 162.359 132.171C171.647 208.404 233.08 251.262 253.681 322.148C268.887 374.467 279.006 507.942 219.466 569.579" stroke="#B093FA"/>
</svg>
