<svg width="20" height="20" viewBox="0 0 20 20" fill="none" xmlns="http://www.w3.org/2000/svg">
<path fill-rule="evenodd" clip-rule="evenodd" d="M12.8023 2.80009L12.8023 8.60065C12.8023 9.04211 13.1602 9.39998 13.6016 9.39998V9.39998C14.0431 9.39998 14.4009 9.04211 14.4009 8.60065L14.4009 6.40188L14.4009 6.40022L14.4009 6.39986C14.4011 4.85362 15.6547 3.60021 17.201 3.60021C18.7472 3.60021 20.0008 4.85362 20.001 6.39986L20.001 6.40022L20.001 9.39998L20.001 10.6L20.001 13.5999L20.001 13.6001C20.001 15.1465 18.7474 16.4001 17.201 16.4001C15.6546 16.4001 14.4009 15.1465 14.4009 13.6001L14.4009 13.5999L14.4009 11.3993C14.4009 10.9579 14.0431 10.6 13.6016 10.6V10.6C13.1602 10.6 12.8023 10.9579 12.8023 11.3993L12.8023 17.2001L12.8023 17.2002C12.8023 18.7465 11.5487 20.0001 10.0023 20.0001C8.45589 20.0001 7.2023 18.7465 7.20226 17.2002L7.20226 17.2001L7.20226 11.5233C7.20226 11.0134 6.78889 10.6 6.27896 10.6V10.6C5.84491 10.6 5.48348 10.9122 5.28218 11.2967C4.81445 12.1903 3.87837 12.8 2.79988 12.8C1.25347 12.8 -0.000138497 11.5464 -0.000138362 10C-0.000138227 8.45362 1.25347 7.20001 2.79988 7.20001C3.87833 7.20001 4.81439 7.80972 5.28214 8.70324C5.48345 9.08778 5.84488 9.39998 6.27893 9.39998V9.39998C6.78887 9.39998 7.20226 8.98659 7.20226 8.47664L7.20226 2.80326C7.20226 2.80216 7.20226 2.80105 7.20226 2.79995C7.20226 1.25355 8.45587 -6.20445e-05 10.0023 -6.19093e-05C11.5487 -6.17741e-05 12.8023 1.25355 12.8023 2.79995C12.8023 2.8 12.8023 2.80004 12.8023 2.80009Z" fill="white"/>
</svg>
