<svg width="35" height="35" viewBox="0 0 35 35" fill="none" xmlns="http://www.w3.org/2000/svg">
<g filter="url(#filter0_ii_269_210)">
<mask id="path-1-outside-1_269_210" maskUnits="userSpaceOnUse" x="0" y="0" width="35" height="35" fill="black">
<rect fill="white" width="35" height="35"/>
<path d="M0 16C0 7.16344 7.16344 0 16 0C24.8366 0 32 7.16344 32 16C32 24.8366 24.8366 32 16 32C7.16344 32 0 24.8366 0 16Z"/>
</mask>
<path d="M0 16C0 7.16344 7.16344 0 16 0C24.8366 0 32 7.16344 32 16C32 24.8366 24.8366 32 16 32C7.16344 32 0 24.8366 0 16Z" fill="#05081B"/>
<path d="M0 16C0 7.16344 7.16344 0 16 0C24.8366 0 32 7.16344 32 16C32 24.8366 24.8366 32 16 32C7.16344 32 0 24.8366 0 16Z" fill="url(#paint0_linear_269_210)"/>
<path d="M0 0H32H0ZM34.4 17.2C34.4 26.6993 26.6993 34.4 17.2 34.4H17.2C7.7007 34.4 0 26.6993 0 17.2V16C0 23.5111 7.16344 29.6 16 29.6C23.5111 29.6 29.6 23.5111 29.6 16L34.4 17.2ZM0 32V0V32ZM17.2 0C26.6993 0 34.4 7.7007 34.4 17.2V17.2C34.4 26.6993 26.6993 34.4 17.2 34.4L16 29.6C23.5111 29.6 29.6 23.5111 29.6 16C29.6 7.16344 23.5111 0 16 0H17.2Z" fill="#7949F6" mask="url(#path-1-outside-1_269_210)"/>
</g>
<defs>
<filter id="filter0_ii_269_210" x="0" y="0" width="36.8004" height="35.9999" filterUnits="userSpaceOnUse" color-interpolation-filters="sRGB">
<feFlood flood-opacity="0" result="BackgroundImageFix"/>
<feBlend mode="normal" in="SourceGraphic" in2="BackgroundImageFix" result="shape"/>
<feColorMatrix in="SourceAlpha" type="matrix" values="0 0 0 0 0 0 0 0 0 0 0 0 0 0 0 0 0 0 127 0" result="hardAlpha"/>
<feOffset dx="2.4" dy="1.6"/>
<feComposite in2="hardAlpha" operator="arithmetic" k2="-1" k3="1"/>
<feColorMatrix type="matrix" values="0 0 0 0 0.47451 0 0 0 0 0.286275 0 0 0 0 0.964706 0 0 0 0.5 0"/>
<feBlend mode="normal" in2="shape" result="effect1_innerShadow_269_210"/>
<feColorMatrix in="SourceAlpha" type="matrix" values="0 0 0 0 0 0 0 0 0 0 0 0 0 0 0 0 0 0 127 0" result="hardAlpha"/>
<feOffset dx="2.4" dy="1.6"/>
<feGaussianBlur stdDeviation="6"/>
<feComposite in2="hardAlpha" operator="arithmetic" k2="-1" k3="1"/>
<feColorMatrix type="matrix" values="0 0 0 0 0.47451 0 0 0 0 0.286275 0 0 0 0 0.964706 0 0 0 0.25 0"/>
<feBlend mode="normal" in2="effect1_innerShadow_269_210" result="effect2_innerShadow_269_210"/>
</filter>
<linearGradient id="paint0_linear_269_210" x1="0" y1="16" x2="32" y2="16" gradientUnits="userSpaceOnUse">
<stop stop-color="#865CF7"/>
<stop offset="1" stop-color="#B093FA"/>
</linearGradient>
</defs>
</svg>
