<svg width="20" height="20" viewBox="0 0 20 20" fill="none" xmlns="http://www.w3.org/2000/svg">
  <path d="M16.25 5.625H3.75C3.40482 5.625 3.125 5.90482 3.125 6.25V13.75C3.125 14.0952 3.40482 14.375 3.75 14.375H16.25C16.5952 14.375 16.875 14.0952 16.875 13.75V6.25C16.875 5.90482 16.5952 5.625 16.25 5.625Z" stroke="currentColor" stroke-width="1.5" stroke-linecap="round" stroke-linejoin="round"/>
  <path d="M10 11.875C11.0355 11.875 11.875 11.0355 11.875 10C11.875 8.96447 11.0355 8.125 10 8.125C8.96447 8.125 8.125 8.96447 8.125 10C8.125 11.0355 8.96447 11.875 10 11.875Z" stroke="currentColor" stroke-width="1.5" stroke-linecap="round" stroke-linejoin="round"/>
  <path d="M13.125 5.625V4.375C13.125 3.68464 12.8484 3.02269 12.3562 2.53141C11.8639 2.04013 11.202 1.76349 10.5117 1.76349C9.82133 1.76349 9.15938 2.04013 8.66809 2.53141C8.17681 3.02269 7.90017 3.68464 7.90017 4.375" stroke="currentColor" stroke-width="1.5" stroke-linecap="round" stroke-linejoin="round"/>
</svg>
