<svg width="20" height="20" viewBox="0 0 20 20" fill="none" xmlns="http://www.w3.org/2000/svg">
<path fill-rule="evenodd" clip-rule="evenodd" d="M15.5901 4.2839C15.6612 4.54875 15.6869 4.83965 15.6962 5.18301C15.8178 5.19375 15.9348 5.20646 16.0472 5.22155C16.8029 5.3229 17.4702 5.54387 18.0046 6.07695C18.5389 6.61005 18.7603 7.27582 18.8619 8.02968C18.9587 8.74775 18.9587 9.655 18.9587 10.7552V12.4948C18.9587 13.5951 18.9587 14.5023 18.8619 15.2204C18.7603 15.9742 18.5389 16.64 18.0046 17.1731C17.4702 17.7062 16.8029 17.9272 16.0472 18.0285C15.3276 18.1251 14.4182 18.125 13.3153 18.125H8.31198C6.82696 18.125 5.62998 18.125 4.68858 17.9987C3.71118 17.8677 2.88824 17.5872 2.23465 16.9352C1.58105 16.2831 1.29993 15.462 1.16853 14.4869C1.04195 13.5477 1.04198 12.3535 1.04199 10.872V4.31256C1.04199 2.96637 2.13584 1.87507 3.48518 1.87507L11.7412 1.87504C12.3889 1.87469 12.8699 1.87442 13.2867 1.98581C14.4108 2.28633 15.2888 3.16235 15.5901 4.2839ZM12.8647 3.55543C12.6837 3.50704 12.4386 3.50005 11.6287 3.50005H3.48481C3.03503 3.50005 2.67041 3.86382 2.67041 4.31255C2.67041 4.76128 3.03503 5.12505 3.48481 5.12505H13.315C13.5754 5.12504 13.8251 5.12504 14.0639 5.1263C14.0565 4.91623 14.0424 4.80118 14.0164 4.70447C13.8658 4.1437 13.4267 3.70569 12.8647 3.55543ZM14.5837 10C15.5042 10 16.2503 10.7462 16.2503 11.6667C16.2503 12.5872 15.5042 13.3333 14.5837 13.3333C13.6632 13.3333 12.917 12.5872 12.917 11.6667C12.917 10.7462 13.6632 10 14.5837 10Z" fill="white"/>
</svg>
