<svg width="20" height="20" viewBox="0 0 20 20" fill="none" xmlns="http://www.w3.org/2000/svg">
<path fill-rule="evenodd" clip-rule="evenodd" d="M0 2.79995V2.8V17.2C0 17.2 0 17.2001 0 17.2001C0 18.7465 1.2536 20.0001 2.8 20.0001C2.80058 20.0001 2.80116 20.0001 2.80173 20.0001C2.80175 20.0001 2.80176 20.0001 2.80176 20.0001C2.80176 20.0002 2.80177 20.0002 2.80178 20.0002H17.2018C17.2018 20.0002 17.2018 20.0002 17.2018 20.0002C17.2018 20.0002 17.2018 20.0002 17.2018 20.0002C18.748 19.9999 20.0014 18.7464 20.0014 17.2001C20.0014 15.6538 18.7478 14.4001 17.2014 14.4001C15.655 14.4001 14.4014 15.6537 14.4014 17.2001V17.2001V17.9986C14.4014 18.4413 14.0425 18.8002 13.5998 18.8002C13.1571 18.8002 12.7982 18.4413 12.7982 17.9986V17.2001V10.0001V10C12.7982 8.45364 11.5446 7.20007 9.99824 7.20007C8.45187 7.20007 7.19828 8.45364 7.19824 10V10.0001V17.2001V18.0019C7.19824 18.4428 6.84086 18.8002 6.4 18.8002C5.95914 18.8002 5.60176 18.4428 5.60176 18.0019V2.8008C5.60176 2.80032 5.60137 2.79993 5.60088 2.79993C5.6004 2.79993 5.6 2.79953 5.6 2.79904C5.59949 1.25309 4.34608 0 2.8 0C1.25362 0 3.05372e-05 1.25357 0 2.79995Z" fill="white"/>
</svg>
