<svg width="145" height="43" viewBox="0 0 145 43" fill="none" xmlns="http://www.w3.org/2000/svg">
<path d="M11.9411 36.6493V24.4693C11.9411 23.5415 12.7048 22.7893 13.647 22.7893C14.5891 22.7893 15.3528 23.5415 15.3528 24.4693V29.0893C15.3528 32.3367 18.0259 34.9693 21.3234 34.9693C24.6208 34.9693 27.2939 32.3367 27.2939 29.0893V24.4693C27.2939 23.5415 28.0577 22.7893 28.9998 22.7893H29.4694C30.2714 22.7893 30.9419 23.3538 31.2883 24.066C32.25 26.0436 34.3012 27.4093 36.6762 27.4093C39.9736 27.4093 42.6468 24.7767 42.6468 21.5293C42.6468 18.2819 39.9736 15.6493 36.6762 15.6493C34.3012 15.6493 32.25 17.015 31.2883 18.9926C30.9419 19.7048 30.2714 20.2693 29.4694 20.2693H28.9998C28.0577 20.2693 27.2939 19.5171 27.2939 18.5893V13.9693C27.2939 10.7219 24.6208 8.0893 21.3234 8.0893C18.0259 8.0893 15.3528 10.7219 15.3528 13.9693V18.5893C15.3528 19.5171 14.5891 20.2693 13.647 20.2693C12.7048 20.2693 11.9411 19.5171 11.9411 18.5893V6.4093C11.9411 3.16186 9.26799 0.529297 5.97055 0.529297C2.6731 0.529297 0 3.16186 0 6.4093V36.6493C0 39.8967 2.6731 42.5293 5.97055 42.5293C9.26799 42.5293 11.9411 39.8967 11.9411 36.6493Z" fill="white"/>
<path d="M49.4717 24.7587H54.7159C54.7637 25.3694 55.0152 25.8508 55.4702 26.2032C55.9251 26.5555 56.5717 26.7316 57.4098 26.7316C58.2718 26.7316 58.9064 26.5907 59.3135 26.3088C59.7206 26.027 59.9241 25.6629 59.9241 25.2167C59.9241 24.9583 59.8164 24.7 59.6008 24.4416C59.4093 24.1833 58.9782 23.9836 58.3078 23.8427L55.0032 23.1381C53.3509 22.7858 52.1177 22.2221 51.3035 21.447C50.4894 20.6484 50.0823 19.4741 50.0823 17.9239C50.0823 16.7026 50.4056 15.6692 51.0521 14.8236C51.7226 13.9546 52.6206 13.297 53.746 12.8507C54.8715 12.381 56.1526 12.1461 57.5894 12.1461C58.9782 12.1461 60.1995 12.3927 61.2531 12.8859C62.3307 13.3792 63.1688 14.072 63.7674 14.9646C64.3661 15.8571 64.6654 16.9022 64.6654 18.1001H59.4212C59.4212 17.4894 59.2417 17.0079 58.8825 16.6556C58.5233 16.2798 58.0084 16.0919 57.3379 16.0919C56.7153 16.0919 56.2125 16.2446 55.8293 16.5499C55.4702 16.8318 55.2906 17.2076 55.2906 17.6773C55.2906 18.4289 55.9371 18.9456 57.2302 19.2275L60.5707 19.9321C62.0553 20.2374 63.1808 20.7659 63.947 21.5175C64.7373 22.2456 65.1324 23.3142 65.1324 24.7235C65.1324 25.9683 64.7971 27.0487 64.1266 27.9647C63.4561 28.8807 62.5223 29.5853 61.325 30.0785C60.1277 30.5483 58.7508 30.7831 57.1943 30.7831C54.8236 30.7831 52.9439 30.2312 51.555 29.1273C50.1661 27.9999 49.4717 26.5437 49.4717 24.7587Z" fill="white"/>
<path d="M66.8144 12.7098H79.0628V17.2193H66.8144V12.7098ZM79.0987 25.6042L79.7453 29.9728C78.6437 30.4896 77.3387 30.7479 75.8301 30.7479C74.6088 30.7479 73.5193 30.5483 72.5615 30.149C71.6276 29.7262 70.8852 29.0334 70.3345 28.0704C69.8077 27.1074 69.5443 25.8039 69.5443 24.1598V7.24902H75.0758V23.0324C75.0758 24.1363 75.2793 24.8996 75.6864 25.3224C76.0935 25.7217 76.6203 25.9213 77.2668 25.9213C77.8415 25.9213 78.4522 25.8156 79.0987 25.6042Z" fill="white"/>
<path d="M96.0937 12.7098H101.158V30.3252H95.95L95.6627 28.0704C95.1359 28.728 94.3816 29.3504 93.3998 29.9376C92.418 30.5248 91.2207 30.8184 89.8079 30.8184C88.0359 30.8184 86.5153 30.4074 85.2462 29.5853C83.977 28.7633 83.0072 27.6359 82.3367 26.2032C81.6902 24.747 81.3669 23.0911 81.3669 21.2356C81.3669 19.3332 81.7261 17.7126 82.4445 16.3738C83.1629 15.0115 84.1566 13.9663 85.4258 13.2382C86.7188 12.5101 88.1915 12.1461 89.8438 12.1461C91.1129 12.1461 92.2983 12.3927 93.3998 12.8859C94.5013 13.3792 95.3035 14.0368 95.8064 14.8589L96.0937 12.7098ZM95.5908 21.5175C95.5908 20.625 95.3993 19.8499 95.0161 19.1922C94.6569 18.5346 94.1421 18.0296 93.4716 17.6773C92.8251 17.3015 92.0708 17.1136 91.2087 17.1136C90.3467 17.1136 89.5924 17.3015 88.9458 17.6773C88.2993 18.0531 87.7964 18.5698 87.4372 19.2275C87.102 19.8851 86.9344 20.6484 86.9344 21.5175C86.9344 22.3865 87.102 23.1498 87.4372 23.8075C87.7964 24.4651 88.2993 24.9818 88.9458 25.3576C89.5924 25.7334 90.3467 25.9213 91.2087 25.9213C92.0708 25.9213 92.8251 25.7452 93.4716 25.3929C94.1421 25.0171 94.6569 24.5003 95.0161 23.8427C95.3993 23.1616 95.5908 22.3865 95.5908 21.5175Z" fill="white"/>
<path d="M104.257 21.2004C104.257 19.4154 104.616 17.8417 105.334 16.4795C106.077 15.1172 107.094 14.0486 108.388 13.2735C109.705 12.4984 111.201 12.1109 112.877 12.1109C114.29 12.1109 115.499 12.3927 116.505 12.9564C117.535 13.5201 118.241 14.2599 118.624 15.1759L118.086 15.5282L118.517 12.7098H123.725V29.1978C123.725 31.2881 123.33 33.0849 122.54 34.5881C121.749 36.1147 120.624 37.2773 119.163 38.0759C117.703 38.898 115.942 39.309 113.883 39.309C111.129 39.309 108.89 38.5809 107.166 37.1247C105.442 35.692 104.448 33.7308 104.185 31.2411H109.788C109.836 32.2276 110.219 32.9909 110.938 33.5311C111.656 34.0948 112.626 34.3767 113.847 34.3767C115.188 34.3767 116.242 34.0126 117.008 33.2845C117.798 32.5564 118.193 31.57 118.193 30.3252V26.5907L118.804 27.0487C118.421 27.9647 117.679 28.7045 116.577 29.2682C115.476 29.8319 114.206 30.1138 112.77 30.1138C111.093 30.1138 109.609 29.738 108.316 28.9864C107.047 28.2348 106.053 27.1896 105.334 25.8508C104.616 24.5121 104.257 22.9619 104.257 21.2004ZM109.824 21.0595C109.824 21.905 110.004 22.6566 110.363 23.3142C110.722 23.9484 111.213 24.4534 111.836 24.8292C112.458 25.205 113.177 25.3929 113.991 25.3929C114.829 25.3929 115.559 25.2167 116.182 24.8644C116.828 24.4886 117.319 23.9836 117.655 23.3495C118.014 22.6918 118.193 21.9285 118.193 21.0595C118.193 20.1904 118.014 19.4506 117.655 18.8399C117.319 18.2058 116.828 17.7126 116.182 17.3602C115.559 17.0079 114.817 16.8318 113.955 16.8318C113.141 16.8318 112.422 17.0079 111.8 17.3602C111.177 17.7126 110.686 18.2058 110.327 18.8399C109.992 19.4741 109.824 20.2139 109.824 21.0595Z" fill="white"/>
<path d="M135.877 30.7831C134.081 30.7831 132.477 30.3839 131.064 29.5853C129.675 28.7867 128.573 27.6946 127.759 26.3088C126.969 24.8996 126.574 23.2907 126.574 21.4822C126.574 19.6502 126.957 18.0414 127.723 16.6556C128.513 15.2464 129.603 14.1425 130.992 13.3439C132.381 12.5454 133.973 12.1461 135.769 12.1461C137.661 12.1461 139.289 12.5336 140.654 13.3087C142.019 14.0603 143.073 15.1407 143.815 16.5499C144.557 17.9357 144.928 19.5915 144.928 21.5175V22.8915L129.483 22.9619L129.555 19.615H139.433C139.433 18.6755 139.11 17.9357 138.463 17.3955C137.816 16.8318 136.93 16.5499 135.805 16.5499C134.871 16.5499 134.105 16.7261 133.506 17.0784C132.931 17.4307 132.5 17.9827 132.213 18.7342C131.926 19.4623 131.782 20.4018 131.782 21.5527C131.782 23.1968 132.117 24.4181 132.788 25.2167C133.482 25.9918 134.548 26.3793 135.985 26.3793C137.038 26.3793 137.912 26.2032 138.607 25.8508C139.301 25.4985 139.744 25.0053 139.936 24.3712H145C144.689 26.3206 143.707 27.8825 142.055 29.0568C140.403 30.2077 138.343 30.7831 135.877 30.7831Z" fill="white"/>
</svg>
