<svg width="96" height="33" viewBox="0 0 96 33" fill="none" xmlns="http://www.w3.org/2000/svg">
<path d="M0.47168 18.1321H5.71586C5.76375 18.7522 6.01518 19.2411 6.47016 19.5988C6.92513 19.9565 7.57167 20.1354 8.40978 20.1354C9.27184 20.1354 9.90641 19.9923 10.3135 19.7061C10.7206 19.4199 10.9241 19.0503 10.9241 18.5971C10.9241 18.3348 10.8164 18.0725 10.6008 17.8101C10.4093 17.5478 9.97825 17.3451 9.30776 17.202L6.00321 16.4865C4.35093 16.1288 3.11771 15.5564 2.30355 14.7694C1.48939 13.9585 1.0823 12.7661 1.0823 11.1921C1.0823 9.95194 1.40557 8.90259 2.05212 8.04403C2.7226 7.16162 3.62058 6.49386 4.74604 6.04073C5.87151 5.56375 7.15262 5.32526 8.58938 5.32526C9.97825 5.32526 11.1995 5.57568 12.2531 6.0765C13.3307 6.57733 14.1688 7.28087 14.7674 8.18712C15.3661 9.09338 15.6654 10.1547 15.6654 11.3709H10.4212C10.4212 10.7509 10.2417 10.262 9.88246 9.90424C9.52327 9.52266 9.00843 9.33187 8.33794 9.33187C7.71535 9.33187 7.21248 9.48688 6.82935 9.79692C6.47016 10.0831 6.29056 10.4647 6.29056 10.9417C6.29056 11.7048 6.9371 12.2295 8.23019 12.5157L11.5707 13.2311C13.0553 13.5412 14.1808 14.0778 14.947 14.8409C15.7373 15.5803 16.1324 16.6654 16.1324 18.0963C16.1324 19.3603 15.7971 20.4573 15.1266 21.3874C14.4562 22.3176 13.5223 23.033 12.325 23.5338C11.1277 24.0108 9.75076 24.2493 8.19427 24.2493C5.82361 24.2493 3.94385 23.6889 2.55498 22.568C1.16611 21.4232 0.47168 19.9446 0.47168 18.1321Z" fill="white"/>
<path d="M17.8144 5.89764H30.0628V10.4766H17.8144V5.89764ZM30.0987 18.9906L30.7453 23.4265C29.6437 23.9512 28.3387 24.2135 26.8301 24.2135C25.6088 24.2135 24.5193 24.0108 23.5615 23.6054C22.6276 23.1761 21.8852 22.4726 21.3345 21.4948C20.8077 20.517 20.5443 19.1934 20.5443 17.5239V0.352783H26.0758V16.3792C26.0758 17.5001 26.2793 18.2752 26.6864 18.7045C27.0935 19.1099 27.6203 19.3126 28.2668 19.3126C28.8415 19.3126 29.4522 19.2053 30.0987 18.9906Z" fill="white"/>
<path d="M47.0937 5.89764H52.1583V23.7843H46.95L46.6627 21.4948C46.1359 22.1625 45.3816 22.7945 44.3998 23.3907C43.418 23.987 42.2207 24.2851 40.8079 24.2851C39.0359 24.2851 37.5153 23.8677 36.2462 23.033C34.977 22.1983 34.0072 21.0536 33.3367 19.5988C32.6902 18.1202 32.3669 16.4388 32.3669 14.5548C32.3669 12.623 32.7261 10.9774 33.4445 9.61805C34.1629 8.23482 35.1566 7.17355 36.4258 6.43423C37.7188 5.69492 39.1915 5.32526 40.8438 5.32526C42.1129 5.32526 43.2983 5.57568 44.3998 6.0765C45.5013 6.57733 46.3035 7.24509 46.8064 8.0798L47.0937 5.89764ZM46.5908 14.8409C46.5908 13.9347 46.3993 13.1477 46.0161 12.4799C45.6569 11.8121 45.1421 11.2994 44.4716 10.9417C43.8251 10.5601 43.0708 10.3693 42.2087 10.3693C41.3467 10.3693 40.5924 10.5601 39.9458 10.9417C39.2993 11.3232 38.7964 11.8479 38.4372 12.5157C38.102 13.1835 37.9343 13.9585 37.9343 14.8409C37.9343 15.7234 38.102 16.4984 38.4372 17.1662C38.7964 17.834 39.2993 18.3586 39.9458 18.7402C40.5924 19.1218 41.3467 19.3126 42.2087 19.3126C43.0708 19.3126 43.8251 19.1337 44.4716 18.776C45.1421 18.3944 45.6569 17.8697 46.0161 17.202C46.3993 16.5104 46.5908 15.7234 46.5908 14.8409Z" fill="white"/>
<path d="M55.2568 14.519C55.2568 12.7065 55.616 11.1086 56.3344 9.72537C57.0767 8.34214 58.0944 7.25702 59.3875 6.47001C60.7045 5.683 62.2012 5.28949 63.8774 5.28949C65.2902 5.28949 66.4995 5.57568 67.5052 6.14805C68.5349 6.72042 69.2413 7.47166 69.6244 8.40176L69.0856 8.75949L69.5167 5.89764H74.7249V22.6395C74.7249 24.7621 74.3298 26.5865 73.5396 28.1128C72.7494 29.663 71.6239 30.8435 70.1632 31.6544C68.7025 32.4891 66.9425 32.9064 64.8831 32.9064C62.1293 32.9064 59.8904 32.1671 58.1663 30.6885C56.4422 29.2337 55.4484 27.2423 55.185 24.7144H60.7883C60.8362 25.716 61.2194 26.4911 61.9378 27.0396C62.6561 27.612 63.626 27.8982 64.8472 27.8982C66.1882 27.8982 67.2418 27.5285 68.0081 26.7892C68.7983 26.0499 69.1934 25.0482 69.1934 23.7843V19.9923L69.804 20.4573C69.4209 21.3874 68.6786 22.1387 67.577 22.7111C66.4755 23.2834 65.2064 23.5696 63.7696 23.5696C62.0934 23.5696 60.6088 23.188 59.3157 22.4249C58.0465 21.6617 57.0528 20.6004 56.3344 19.2411C55.616 17.8817 55.2568 16.3076 55.2568 14.519ZM60.8243 14.3759C60.8243 15.2345 61.0039 15.9976 61.3631 16.6654C61.7222 17.3093 62.2131 17.8221 62.8357 18.2036C63.4583 18.5852 64.1767 18.776 64.9909 18.776C65.829 18.776 66.5593 18.5971 67.1819 18.2394C67.8285 17.8578 68.3194 17.3451 68.6546 16.7012C69.0138 16.0334 69.1934 15.2583 69.1934 14.3759C69.1934 13.4935 69.0138 12.7422 68.6546 12.1222C68.3194 11.4783 67.8285 10.9774 67.1819 10.6197C66.5593 10.262 65.817 10.0831 64.955 10.0831C64.1408 10.0831 63.4224 10.262 62.7998 10.6197C62.1772 10.9774 61.6863 11.4783 61.3271 12.1222C60.9919 12.7661 60.8243 13.5173 60.8243 14.3759Z" fill="white"/>
<path d="M86.8769 24.2493C85.0809 24.2493 83.4765 23.8439 82.0637 23.033C80.6748 22.2222 79.5733 21.1132 78.7591 19.7061C77.9689 18.2752 77.5738 16.6415 77.5738 14.8052C77.5738 12.945 77.9569 11.3113 78.7232 9.90424C79.5134 8.47331 80.603 7.35241 81.9919 6.54155C83.3807 5.73069 84.9731 5.32526 86.7691 5.32526C88.6608 5.32526 90.2891 5.71877 91.6541 6.50578C93.019 7.26894 94.0726 8.36599 94.8149 9.79692C95.5573 11.204 95.9284 12.8853 95.9284 14.8409V16.2361L80.4833 16.3076L80.5551 12.9092H90.4328C90.4328 11.9552 90.1096 11.204 89.463 10.6555C88.8165 10.0831 87.9305 9.79692 86.805 9.79692C85.8711 9.79692 85.1048 9.97579 84.5062 10.3335C83.9315 10.6912 83.5004 11.2517 83.2131 12.0149C82.9257 12.7542 82.7821 13.7081 82.7821 14.8767C82.7821 16.5461 83.1173 17.7863 83.7878 18.5971C84.4822 19.3841 85.5478 19.7777 86.9846 19.7777C88.0382 19.7777 88.9123 19.5988 89.6067 19.2411C90.3011 18.8833 90.7441 18.3825 90.9357 17.7386H96.0003C95.689 19.718 94.7072 21.304 93.0549 22.4964C91.4026 23.665 89.3433 24.2493 86.8769 24.2493Z" fill="white"/>
</svg>
