<svg width="43" height="43" viewBox="0 0 43 43" fill="none" xmlns="http://www.w3.org/2000/svg">
<path d="M11.9411 36.6493V24.4693C11.9411 23.5415 12.7048 22.7893 13.647 22.7893C14.5891 22.7893 15.3528 23.5415 15.3528 24.4693V29.0893C15.3528 32.3367 18.0259 34.9693 21.3234 34.9693C24.6208 34.9693 27.2939 32.3367 27.2939 29.0893V24.4693C27.2939 23.5415 28.0577 22.7893 28.9998 22.7893H29.4694C30.2714 22.7893 30.9419 23.3538 31.2883 24.066C32.25 26.0436 34.3012 27.4093 36.6762 27.4093C39.9736 27.4093 42.6468 24.7767 42.6468 21.5293C42.6468 18.2819 39.9736 15.6493 36.6762 15.6493C34.3012 15.6493 32.25 17.015 31.2883 18.9926C30.9419 19.7048 30.2714 20.2693 29.4694 20.2693H28.9998C28.0577 20.2693 27.2939 19.5171 27.2939 18.5893V13.9693C27.2939 10.7219 24.6208 8.0893 21.3234 8.0893C18.0259 8.0893 15.3528 10.7219 15.3528 13.9693V18.5893C15.3528 19.5171 14.5891 20.2693 13.647 20.2693C12.7048 20.2693 11.9411 19.5171 11.9411 18.5893V6.4093C11.9411 3.16186 9.26799 0.529297 5.97055 0.529297C2.6731 0.529297 0 3.16186 0 6.4093V36.6493C0 39.8967 2.6731 42.5293 5.97055 42.5293C9.26799 42.5293 11.9411 39.8967 11.9411 36.6493Z" fill="white"/>
</svg>
